<?xml version="1.0" standalone="no"?>
<!DOCTYPE svg PUBLIC "-//W3C//DTD SVG 20010904//EN"
 "http://www.w3.org/TR/2001/REC-SVG-20010904/DTD/svg10.dtd">
<svg version="1.0" xmlns="http://www.w3.org/2000/svg"
 width="512.000000pt" height="512.000000pt" viewBox="0 0 512.000000 512.000000"
 preserveAspectRatio="xMidYMid meet">
<metadata>
Created by potrace 1.14, written by Peter Selinger 2001-2017
</metadata>
<g transform="translate(0.000000,512.000000) scale(0.100000,-0.100000)"
fill="#000000" stroke="none">
<path d="M2612 4605 c-33 -15 -57 -36 -73 -61 l-24 -39 -1 -1580 c-1 -1680 -3
-1616 44 -1668 46 -51 137 -67 202 -36 43 21 85 72 74 90 -4 8 -3 9 4 5 13 -8
13 -4 16 137 0 49 -2 91 -7 94 -4 2 -4 10 0 16 10 16 10 458 0 464 -4 3 -4 10
1 16 10 14 10 87 -1 104 -4 6 -4 14 0 16 10 6 10 328 0 344 -4 6 -4 14 1 17
10 6 9 127 -1 143 -4 6 -4 14 1 17 10 6 9 86 -1 103 -4 6 -4 14 1 17 10 6 9
207 -1 223 -4 6 -4 14 1 17 10 6 9 86 -1 102 -3 6 -3 14 1 18 9 10 9 457 -1
463 -4 3 -4 10 1 16 10 14 10 87 -1 104 -4 6 -4 14 1 17 10 6 9 207 -1 223 -4
6 -4 14 1 17 10 6 9 86 -1 103 -4 6 -4 14 0 16 5 3 7 79 7 169 -2 222 -2 220
-16 212 -7 -4 -8 -3 -4 4 11 19 -24 68 -64 91 -54 30 -102 32 -158 6z"/>
<path d="M3740 2980 c0 -6 -3 -9 -7 -7 -10 6 -34 -19 -26 -27 4 -3 2 -6 -4 -6
-15 0 -23 -38 -9 -44 7 -3 7 -5 0 -5 -6 -1 -10 -22 -8 -55 1 -39 -2 -56 -12
-60 -8 -3 -14 -2 -14 2 0 9 -124 7 -139 -3 -6 -3 -11 -1 -11 6 0 8 -3 9 -13 0
-8 -6 -17 -8 -20 -4 -10 9 -177 10 -204 1 -13 -4 -23 -4 -23 0 0 4 -15 7 -34
7 l-34 0 2 -175 1 -174 43 -1 c23 0 42 3 42 7 0 4 6 7 13 6 6 -2 11 3 9 10 -1
8 2 11 7 7 6 -3 8 -11 5 -18 -5 -13 73 -16 94 -3 6 3 14 2 17 -4 5 -8 11 -7
21 1 11 9 14 9 14 -1 0 -10 3 -10 15 0 12 10 15 10 15 0 0 -10 3 -10 15 0 12
10 15 10 15 0 0 -10 3 -10 15 0 12 10 15 10 15 -1 0 -11 2 -11 10 1 5 8 10 11
10 5 0 -5 25 -10 55 -10 30 0 55 5 55 10 0 6 5 3 10 -5 8 -12 10 -12 10 -1 0
8 3 12 6 8 3 -3 2 -12 -2 -19 -26 -42 -3 -59 34 -25 15 14 19 14 19 2 0 -8 -4
-12 -8 -10 -3 3 -12 -2 -19 -10 -7 -8 -16 -13 -20 -10 -5 3 -12 0 -16 -6 -3
-6 0 -15 7 -20 11 -7 11 -9 1 -9 -9 0 -11 -7 -7 -22 11 -39 28 -68 37 -62 4 3
8 0 8 -6 0 -6 4 -9 9 -5 5 3 12 1 15 -4 4 -5 14 -8 24 -6 9 2 21 4 25 4 5 1 6
5 3 10 -3 5 1 8 9 7 7 0 14 4 13 9 0 6 -3 9 -7 8 -4 -1 -8 5 -8 13 0 12 3 11
18 -2 11 -10 25 -14 36 -10 15 6 15 9 3 17 -12 9 -12 10 3 5 20 -7 61 16 50
28 -4 4 0 4 10 0 12 -4 17 -1 17 12 0 16 2 17 10 4 8 -13 13 -9 12 10 0 3 12
6 26 7 15 0 28 6 30 12 2 6 8 11 12 11 18 0 100 55 100 67 0 7 -6 12 -12 11
-7 -2 -13 3 -13 11 0 8 6 15 13 17 7 1 8 0 2 -3 -5 -2 -10 -9 -10 -14 0 -6 5
-7 10 -4 6 3 13 -1 16 -9 5 -12 10 -13 25 -5 11 5 17 14 14 19 -3 6 0 7 8 4 8
-3 22 2 30 11 9 9 18 15 19 14 8 -3 58 25 58 33 0 5 4 7 9 4 12 -8 45 43 47
74 3 36 -19 64 -72 94 -55 31 -50 30 -58 10 -4 -12 -2 -15 9 -10 8 3 15 1 15
-5 0 -6 -8 -9 -17 -7 -10 2 -17 10 -15 16 1 7 3 17 5 24 1 6 -7 14 -17 16 -10
2 -28 13 -39 23 -12 10 -25 19 -29 19 -5 0 -37 18 -72 40 -35 22 -66 40 -71
40 -4 0 -20 9 -36 21 -18 12 -38 19 -50 16 -16 -4 -18 -3 -9 8 8 9 6 14 -5 19
-11 4 -14 2 -10 -7 4 -6 1 -5 -7 4 -19 23 -77 51 -90 43 -7 -4 -8 -3 -4 4 4 7
2 12 -3 12 -11 0 -15 -15 -11 -35 1 -5 -2 -7 -6 -3 -4 4 -14 2 -23 -4 -11 -9
-10 -6 2 9 12 14 15 23 8 28 -6 3 -11 1 -11 -5z m27 -56 c-3 -3 -12 -4 -19 -1
-8 3 -5 6 6 6 11 1 17 -2 13 -5z m36 -12 c15 -16 15 -19 2 -19 -8 0 -13 3 -10
5 3 3 0 11 -6 19 -17 20 -5 16 14 -5z m62 -2 c3 -6 -1 -7 -9 -4 -18 7 -21 14
-7 14 6 0 13 -4 16 -10z m-91 -8 c2 -4 -4 -8 -14 -8 -10 0 -16 4 -14 8 3 4 9
8 14 8 5 0 11 -4 14 -8z m154 -47 c-3 -3 -9 2 -12 12 -6 14 -5 15 5 6 7 -7 10
-15 7 -18z m-121 -2 c0 -9 -4 -10 -14 -2 -7 6 -13 12 -13 14 0 1 6 2 13 2 8 0
14 -6 14 -14z m-69 -10 c-9 -10 -14 -26 -13 -35 2 -9 -4 -23 -13 -30 -13 -11
-14 -11 -7 2 6 8 10 22 10 31 0 16 22 49 33 49 3 0 -2 -8 -10 -17z m166 4 c-3
-8 -11 -14 -19 -14 -21 0 -19 15 3 20 9 3 18 5 19 6 1 0 0 -5 -3 -12z m129
-28 c-8 -8 -13 -7 -18 2 -6 8 -4 10 5 4 10 -6 12 -4 6 11 -6 15 -5 17 5 7 9
-10 10 -16 2 -24z m-193 17 c0 -2 -7 -7 -16 -10 -8 -3 -12 -2 -9 4 6 10 25 14
25 6z m-65 -15 c-9 -8 -36 -10 -30 -2 2 4 11 8 20 8 8 0 13 -3 10 -6z m224 -5
c9 -10 8 -15 -3 -19 -11 -4 -13 -1 -9 10 5 12 3 14 -7 8 -9 -5 -11 -4 -6 3 9
15 11 15 25 -2z m-153 -11 c-1 -8 -5 -17 -8 -21 -5 -4 -4 16 1 34 3 9 9 -1 7
-13z m199 -5 c-3 -5 -1 -10 6 -10 7 0 10 -3 6 -6 -9 -9 -28 6 -22 17 4 5 8 9
11 9 3 0 2 -4 -1 -10z m-75 -21 c0 -5 -4 -9 -8 -9 -5 0 -9 7 -9 15 0 8 4 12 9
9 4 -3 8 -9 8 -15z m-175 -36 c-18 -17 -18 -17 -6 0 11 14 11 20 0 35 -12 16
-12 16 6 0 19 -18 19 -18 0 -35z m231 35 c4 -7 4 -10 -1 -6 -4 4 -14 0 -22
-10 -13 -15 -13 -15 -3 6 12 25 16 27 26 10z m-279 -13 c0 -8 -3 -13 -5 -10
-3 3 -12 -1 -21 -7 -10 -8 -9 -4 3 10 23 26 23 26 23 7z m120 -7 c-3 -8 -6 -5
-6 6 -1 11 2 17 5 13 3 -3 4 -12 1 -19z m68 2 c6 -1 12 -4 15 -7 3 -4 -1 -2
-9 2 -11 6 -13 4 -8 -8 4 -11 2 -14 -8 -10 -8 3 -12 10 -8 16 4 6 0 8 -9 5 -8
-4 -15 0 -15 7 0 10 5 11 16 5 9 -4 21 -9 26 -10z m192 14 c-3 -3 -12 -4 -19
-1 -8 3 -5 6 6 6 11 1 17 -2 13 -5z m33 -19 c14 -19 14 -19 -2 -6 -10 7 -18
18 -18 24 0 6 1 8 3 6 1 -2 9 -13 17 -24z m-586 7 c2 -4 -4 -8 -14 -8 -10 0
-16 4 -14 8 3 4 9 8 14 8 5 0 11 -4 14 -8z m490 -7 c-4 -8 -8 -15 -10 -15 -2
0 -4 7 -4 15 0 8 4 15 10 15 5 0 7 -7 4 -15z m-821 -10 c-3 -9 -8 -14 -10 -11
-3 3 -2 9 2 15 9 16 15 13 8 -4z m63 -7 c3 -4 -1 -5 -10 -4 -8 1 -18 5 -22 8
-3 4 1 5 10 4 8 -1 18 -5 22 -8z m784 8 c0 -3 -4 -8 -10 -11 -5 -3 -10 -1 -10
4 0 6 5 11 10 11 6 0 10 -2 10 -4z m56 -25 c2 -19 1 -19 -3 -1 -2 11 -8 18
-12 16 -4 -3 -13 0 -21 5 -11 7 -8 8 10 6 17 -3 25 -11 26 -26z m-559 4 c0 -8
-4 -12 -9 -9 -5 3 -6 10 -3 15 9 13 12 11 12 -6z m159 -5 c0 -12 -4 -16 -9
-11 -5 5 -6 14 -3 20 10 15 12 14 12 -9z m77 5 c-3 -9 -8 -14 -10 -11 -3 3 -2
9 2 15 9 16 15 13 8 -4z m382 -4 c-3 -6 -11 -11 -16 -11 -5 0 -4 6 3 14 14 16
24 13 13 -3z m-315 -1 c0 -5 -4 -10 -10 -10 -5 0 -10 5 -10 10 0 6 5 10 10 10
6 0 10 -4 10 -10z m80 0 c0 -5 -4 -10 -10 -10 -5 0 -10 5 -10 10 0 6 5 10 10
10 6 0 10 -4 10 -10z m40 -10 c-24 -15 -36 -11 -14 4 10 8 21 12 24 10 2 -3
-2 -9 -10 -14z m47 -2 c-3 -8 -6 -5 -6 6 -1 11 2 17 5 13 3 -3 4 -12 1 -19z
m53 12 c0 -5 -4 -10 -10 -10 -5 0 -10 5 -10 10 0 6 5 10 10 10 6 0 10 -4 10
-10z m-843 -15 c0 -8 -4 -12 -9 -9 -5 3 -6 10 -3 15 9 13 12 11 12 -6z m666
-12 c-5 -12 -3 -14 8 -8 8 5 11 5 6 -1 -5 -5 -12 -8 -15 -7 -4 0 -14 -3 -23
-7 -11 -6 -16 -5 -16 5 0 7 7 11 15 7 9 -3 13 -1 9 5 -6 9 -1 14 20 22 1 1 -1
-6 -4 -16z m157 -18 c0 -5 -5 -3 -10 5 -5 8 -10 20 -10 25 0 6 5 3 10 -5 5 -8
10 -19 10 -25z m40 25 c0 -5 -8 -10 -17 -10 -15 0 -16 2 -3 10 19 12 20 12 20
0z m-542 -25 c-3 -3 -9 2 -12 12 -6 14 -5 15 5 6 7 -7 10 -15 7 -18z m260 -1
c1 -1 -5 -7 -15 -15 -12 -10 -15 -10 -9 -1 4 7 2 20 -6 30 -12 16 -11 16 7 2
11 -8 21 -15 23 -16z m433 11 c5 4 6 -1 2 -10 -5 -13 -7 -14 -14 -3 -5 7 -8
18 -8 23 0 6 3 4 6 -3 2 -6 9 -10 14 -7z m-934 -14 c0 -11 -5 -18 -9 -15 -4 3
-5 11 -1 19 7 21 12 19 10 -4z m283 13 c0 -8 -19 -13 -24 -6 -3 5 1 9 9 9 8 0
15 -2 15 -3z m37 -11 c0 -9 -4 -10 -14 -2 -7 6 -13 12 -13 14 0 1 6 2 13 2 8
0 14 -6 14 -14z m62 14 c-2 -1 -13 -9 -24 -17 -19 -14 -19 -14 -6 3 7 9 18 17
24 17 6 0 8 -1 6 -3z m336 -7 c3 -5 1 -10 -4 -10 -6 0 -11 5 -11 10 0 6 2 10
4 10 3 0 8 -4 11 -10z m81 -15 c-3 -9 -10 -13 -16 -10 -5 3 -10 2 -10 -4 0 -5
6 -12 13 -14 9 -4 9 -6 -1 -6 -7 -1 -15 6 -18 14 -4 8 -11 12 -17 8 -6 -3 -7
-1 -3 5 3 6 15 9 26 7 13 -3 20 2 20 12 0 9 3 14 6 10 4 -3 4 -13 0 -22z m61
19 c-3 -3 -12 -4 -19 -1 -8 3 -5 6 6 6 11 1 17 -2 13 -5z m-400 -17 c0 -8 -6
-14 -14 -14 -9 0 -10 4 -2 14 6 7 12 13 14 13 1 0 2 -6 2 -13z m443 3 c0 -5
-2 -10 -4 -10 -3 0 -8 5 -11 10 -3 6 -1 10 4 10 6 0 11 -4 11 -10z m76 -2 c4
-7 3 -10 -1 -5 -5 4 -17 0 -27 -10 -22 -20 -24 -11 -2 11 19 19 21 19 30 4z
m-1076 -2 c0 -3 -4 -8 -10 -11 -5 -3 -10 -1 -10 4 0 6 5 11 10 11 6 0 10 -2
10 -4z m140 0 c0 -3 -4 -8 -10 -11 -5 -3 -10 -1 -10 4 0 6 5 11 10 11 6 0 10
-2 10 -4z m341 -9 c-6 -8 -8 -16 -5 -20 3 -3 -1 -4 -10 -3 -8 1 -19 6 -23 11
-4 4 -3 5 3 2 7 -4 17 0 24 8 7 8 15 15 17 15 3 0 0 -6 -6 -13z m239 4 c0 -6
-4 -12 -8 -15 -5 -3 -9 1 -9 9 0 8 4 15 9 15 4 0 8 -4 8 -9z m258 0 c1 0 -5
-12 -14 -26 -9 -14 -20 -22 -25 -19 -5 3 -9 -4 -9 -15 0 -12 6 -20 13 -18 7 1
12 -8 12 -23 0 -15 -5 -24 -12 -22 -7 1 -13 -7 -13 -18 0 -11 5 -19 11 -17 6
1 14 -5 16 -13 4 -12 3 -12 -5 -2 -5 8 -13 13 -18 13 -5 -1 -9 9 -9 22 0 12 5
21 13 20 6 -2 12 6 12 17 0 11 -6 19 -12 18 -8 -2 -13 7 -13 22 0 14 5 24 11
23 5 -1 16 7 22 18 11 17 10 20 -5 17 -10 -2 -26 -14 -35 -28 -16 -23 -17 -23
-15 -3 0 12 4 20 8 17 4 -2 9 2 12 10 4 10 38 15 55 7z m-361 -23 c-3 -8 -6
-5 -6 6 -1 11 2 17 5 13 3 -3 4 -12 1 -19z m192 19 c-2 -1 -13 -9 -24 -17 -19
-14 -19 -14 -6 3 7 9 18 17 24 17 6 0 8 -1 6 -3z m-395 -23 c3 -8 2 -12 -4 -9
-6 3 -10 10 -10 16 0 14 7 11 14 -7z m346 1 c0 -1 -6 -8 -14 -14 -11 -9 -16
-9 -22 0 -5 8 -3 9 6 4 10 -6 12 -4 7 8 -4 11 -2 14 9 10 7 -3 14 -6 14 -8z
m260 5 c0 -5 -4 -10 -10 -10 -5 0 -10 5 -10 10 0 6 5 10 10 10 6 0 10 -4 10
-10z m75 1 c3 -6 -4 -9 -15 -8 -11 1 -20 5 -20 9 0 11 28 10 35 -1z m-1078
-16 c0 -8 -4 -12 -9 -9 -5 3 -6 10 -3 15 9 13 12 11 12 -6z m835 1 c7 4 8 2 4
-5 -9 -13 -26 -5 -25 12 0 9 2 8 6 -1 2 -6 10 -9 15 -6z m148 -21 c0 -5 -5 -3
-10 5 -5 8 -10 20 -10 25 0 6 5 3 10 -5 5 -8 10 -19 10 -25z m-480 21 c0 -2
-7 -7 -16 -10 -8 -3 -12 -2 -9 4 6 10 25 14 25 6z m37 -13 c0 -9 -4 -10 -14
-2 -7 6 -13 12 -13 14 0 1 6 2 13 2 8 0 14 -6 14 -14z m40 11 c-3 -3 -12 -4
-19 -1 -8 3 -5 6 6 6 11 1 17 -2 13 -5z m458 -4 c3 -5 12 -7 19 -4 8 3 17 1
21 -5 4 -7 0 -8 -11 -4 -12 5 -15 3 -9 -6 4 -7 -5 -5 -21 5 -23 16 -27 16 -22
3 4 -9 -2 -20 -13 -27 -12 -8 -19 -8 -19 -2 0 5 4 10 9 10 5 0 11 9 14 20 5
21 22 26 32 10z m-576 -27 c2 -1 -5 -1 -16 0 -11 0 -20 7 -20 14 0 10 4 10 16
1 9 -7 18 -13 20 -15z m309 7 c-7 -10 -14 -18 -15 -16 -6 6 9 36 18 36 5 0 4
-9 -3 -20z m-457 -13 c-10 -9 -11 -8 -5 6 3 10 9 15 12 12 3 -3 0 -11 -7 -18z
m83 12 c3 -2 -10 -5 -29 -5 -18 0 -32 3 -30 7 5 7 52 6 59 -2z m117 -6 c13
-16 12 -17 -3 -4 -17 13 -22 21 -14 21 2 0 10 -8 17 -17z m59 13 c0 -2 -8 -10
-17 -17 -16 -13 -17 -12 -4 4 13 16 21 21 21 13z m64 -12 c3 -7 -2 -10 -15 -7
-22 6 -26 20 -4 20 8 0 16 -6 19 -13z m236 4 c0 -4 -7 -8 -15 -8 -8 0 -15 4
-15 8 0 5 7 9 15 9 8 0 15 -4 15 -9z m90 2 c0 -5 -4 -10 -10 -10 -5 0 -10 5
-10 10 0 6 5 10 10 10 6 0 10 -4 10 -10z m-223 -15 c0 -8 -4 -12 -9 -9 -5 3
-6 10 -3 15 9 13 12 11 12 -6z m-757 1 c0 -3 -4 -8 -10 -11 -5 -3 -10 -1 -10
4 0 6 5 11 10 11 6 0 10 -2 10 -4z m56 -8 c3 -4 -1 -5 -10 -4 -8 1 -18 5 -22
8 -3 4 1 5 10 4 8 -1 18 -5 22 -8z m621 -8 c-1 -11 -5 -20 -9 -20 -10 0 -10 4
-2 24 8 22 13 20 11 -4z m237 -20 c-5 -5 -10 3 -11 18 -1 22 0 24 9 8 6 -10 6
-22 2 -26z m134 19 c-10 -6 -15 -17 -12 -27 5 -15 4 -14 -6 1 -10 15 -8 21 7
32 10 7 20 11 23 8 3 -2 -3 -9 -12 -14z m37 1 c-10 -11 -22 -20 -28 -20 -5 0
1 9 14 20 31 25 37 25 14 0z m-589 -10 c0 -12 -4 -16 -9 -11 -5 5 -6 14 -3 20
10 15 12 14 12 -9z m341 -2 c-3 -8 -6 -5 -6 6 -1 11 2 17 5 13 3 -3 4 -12 1
-19z m168 -18 c5 1 11 -4 13 -12 3 -11 2 -11 -6 0 -5 8 -13 12 -18 10 -5 -1
-10 8 -11 22 -2 24 -2 24 5 2 4 -13 11 -23 17 -22z m-656 16 c9 -11 9 -16 -1
-22 -7 -4 -10 -4 -6 1 4 4 3 14 -3 22 -6 7 -9 13 -6 13 2 0 10 -6 16 -14z
m218 -8 c-3 -8 -6 -5 -6 6 -1 11 2 17 5 13 3 -3 4 -12 1 -19z m179 10 c3 -4
-1 -5 -10 -4 -8 1 -18 5 -22 8 -3 4 1 5 10 4 8 -1 18 -5 22 -8z m54 2 c0 -5
-4 -10 -10 -10 -5 0 -10 5 -10 10 0 6 5 10 10 10 6 0 10 -4 10 -10z m90 0 c0
-5 -4 -10 -10 -10 -5 0 -10 5 -10 10 0 6 5 10 10 10 6 0 10 -4 10 -10z m-490
-4 c0 -2 -8 -10 -17 -17 -16 -13 -17 -12 -4 4 13 16 21 21 21 13z m36 -22 c1
-9 0 -13 -4 -10 -3 4 -7 14 -8 22 -1 9 0 13 4 10 3 -4 7 -14 8 -22z m165 9
c13 -16 12 -17 -3 -4 -17 13 -22 21 -14 21 2 0 10 -8 17 -17z m-606 -3 c3 -5
1 -10 -4 -10 -6 0 -11 5 -11 10 0 6 2 10 4 10 3 0 8 -4 11 -10z m65 4 c0 -8
-19 -13 -24 -6 -3 5 1 9 9 9 8 0 15 -2 15 -3z m411 -11 c13 -16 12 -17 -3 -4
-17 13 -22 21 -14 21 2 0 10 -8 17 -17z m344 7 c-8 -13 1 -13 26 0 10 6 19 8
19 6 0 -10 -41 -27 -50 -21 -10 6 -5 25 6 25 3 0 2 -4 -1 -10z m-55 -10 c8 -5
11 -10 5 -10 -5 0 -17 5 -25 10 -8 5 -10 10 -5 10 6 0 17 -5 25 -10z m-443
-15 c0 -8 -4 -12 -9 -9 -5 3 -6 10 -3 15 9 13 12 11 12 -6z m337 -2 c4 -10 1
-11 -12 -5 -9 5 -24 7 -32 5 -11 -3 -12 -2 -2 5 19 13 40 11 46 -5z m66 2 c0
-1 -9 -5 -19 -8 -13 -3 -18 -1 -14 9 4 10 33 10 33 -1z m170 0 c0 -1 -12 -2
-26 -2 -17 0 -22 2 -13 7 10 7 39 3 39 -5z m90 5 c0 -5 -4 -10 -10 -10 -5 0
-10 5 -10 10 0 6 5 10 10 10 6 0 10 -4 10 -10z m-963 -25 c0 -8 -4 -12 -9 -9
-5 3 -6 10 -3 15 9 13 12 11 12 -6z m343 11 c0 -2 -7 -7 -16 -10 -8 -3 -12 -2
-9 4 6 10 25 14 25 6z m40 -8 c0 -4 -4 -8 -9 -8 -6 0 -12 4 -15 8 -3 5 1 9 9
9 8 0 15 -4 15 -9z m81 -1 c-6 -8 -9 -17 -6 -20 3 -4 2 -5 -2 -2 -3 3 -11 0
-18 -5 -8 -7 -12 -5 -12 5 0 8 4 12 8 10 3 -3 12 2 19 10 7 8 15 15 17 15 3 0
0 -6 -6 -13z m276 7 c-3 -3 -12 -4 -19 -1 -8 3 -5 6 6 6 11 1 17 -2 13 -5z
m158 -24 c2 -12 1 -20 -2 -16 -4 4 -8 16 -10 28 -4 28 6 18 12 -12z m-795 16
c0 -2 -8 -10 -17 -17 -16 -13 -17 -12 -4 4 13 16 21 21 21 13z m712 -18 c-7
-7 -12 -8 -12 -2 0 14 12 26 19 19 2 -3 -1 -11 -7 -17z m-312 3 c0 -5 -8 -15
-17 -22 -16 -12 -17 -12 -6 2 7 9 10 19 6 22 -3 4 -1 7 5 7 7 0 12 -4 12 -9z
m155 0 c-9 -8 -36 -10 -30 -2 2 4 11 8 20 8 8 0 13 -3 10 -6z m125 -12 l25
-20 -25 12 c-14 7 -28 12 -32 11 -5 -1 -8 3 -8 8 0 15 12 12 40 -11z m-660 -3
c0 -3 -4 -8 -10 -11 -5 -3 -10 -1 -10 4 0 6 5 11 10 11 6 0 10 -2 10 -4z m460
-2 c0 -8 -19 -13 -24 -6 -3 5 1 9 9 9 8 0 15 -2 15 -3z m120 -4 c0 -5 -4 -10
-10 -10 -5 0 -10 5 -10 10 0 6 5 10 10 10 6 0 10 -4 10 -10z m-243 -15 c0 -8
-4 -12 -9 -9 -5 3 -6 10 -3 15 9 13 12 11 12 -6z m140 0 c0 -8 -5 -11 -10 -8
-7 4 -8 -1 -3 -12 5 -15 4 -16 -8 -6 -8 7 -21 9 -28 5 -7 -4 -10 -4 -6 1 4 4
18 14 30 21 13 6 23 12 24 13 0 1 1 -6 1 -14z m147 -2 c4 -10 4 -14 0 -10 -4
4 -12 -1 -19 -10 -9 -13 -14 -13 -20 -3 -6 9 -4 11 5 5 10 -6 12 -4 7 9 -4 10
-3 15 3 11 6 -3 10 -1 10 4 0 16 7 13 14 -6z m44 -18 c-3 -3 -9 2 -12 12 -6
14 -5 15 5 6 7 -7 10 -15 7 -18z m52 15 c0 -5 -4 -10 -10 -10 -5 0 -10 5 -10
10 0 6 5 10 10 10 6 0 10 -4 10 -10z m-60 -45 c0 -5 -5 -3 -10 5 -5 8 -10 20
-10 25 0 6 5 3 10 -5 5 -8 10 -19 10 -25z m35 25 c3 -5 1 -10 -4 -10 -6 0 -11
5 -11 10 0 6 2 10 4 10 3 0 8 -4 11 -10z m-119 -29 c-4 -6 -13 -11 -19 -11 -8
0 -7 3 2 9 8 5 10 14 6 22 -6 11 -5 11 5 2 7 -6 9 -16 6 -22z m-121 10 c3 -5
2 -12 -3 -15 -5 -3 -9 1 -9 9 0 17 3 19 12 6z m180 -10 c3 -5 0 -13 -6 -17 -7
-4 -9 -3 -5 4 3 5 0 13 -6 15 -9 4 -10 6 -1 6 6 1 14 -3 18 -8z m-216 -35 c-3
-3 -11 5 -18 17 -13 21 -12 21 5 5 10 -10 16 -20 13 -22z m83 12 c-2 -10 -9
-18 -15 -18 -6 0 -7 3 -4 7 4 3 3 11 -3 17 -6 8 -3 12 9 12 12 0 17 -6 13 -18z
m-145 -3 c0 -8 -3 -13 -5 -10 -3 3 -12 -1 -21 -7 -10 -8 -9 -4 3 10 23 26 23
26 23 7z m76 -40 c-3 -9 -8 -14 -10 -11 -3 3 -2 9 2 15 9 16 15 13 8 -4z m-47
-27 c3 -4 -1 -5 -10 -4 -8 1 -18 5 -22 8 -3 4 1 5 10 4 8 -1 18 -5 22 -8z"/>
<path d="M1092 2773 c-42 -14 -76 -45 -96 -88 -14 -29 -16 -117 -16 -697 0
-748 -5 -703 79 -762 l41 -30 533 1 c591 0 580 -1 631 66 65 85 38 204 -58
254 -27 15 -80 17 -456 18 l-425 0 0 450 0 450 450 0 450 0 2 160 c0 88 -1
167 -3 175 -3 13 -73 15 -551 15 -391 0 -557 -3 -581 -12z"/>
</g>
</svg>
